# xmcd CD database file
# Copyright (C) 1996 Ti Kan
#
# Track frame offsets:
# 	150
# 	12922
# 	25100
# 	36675
# 	52612
# 	65797
# 	78912
# 	91950
# 	104525
# 	118425
#
# Disc length: 1757 seconds
#
# Revision: 1
# Processed by: cddbd v1.4b41PL1 Copyright (c) Steve Scherf et al.
# Submitted via: DiscPlay 3.3.1
#
DISCID=8206db0a
DTITLE=Howlin' Wolf - Bluesmaster
DYEAR=1900
DGENRE=
TTITLE0=I Asked For Water
TTITLE1=How Many More Years
TTITLE2=Who Will Be Next
TTITLE3=Change My Way
TTITLE4=Moanin' At Midnight
TTITLE5=Evil
TTITLE6=My Mind Is Ramblin'
TTITLE7=Highway 49
TTITLE8=Poor Boy
TTITLE9=Worried About My Baby
EXTD=
EXTT0=
EXTT1=
EXTT2=
EXTT3=
EXTT4=
EXTT5=
EXTT6=
EXTT7=
EXTT8=
EXTT9=
PLAYORDER=
